<svg xmlns="http://www.w3.org/2000/svg" viewBox="0 0 800 450" role="img" aria-label="Runbooks illustration">
  <rect width="800" height="450" rx="36" fill="#ffffff" />
  <rect x="114" y="78" width="250" height="294" rx="28" fill="#f7fbff" stroke="rgba(36,83,143,.12)" />
  <rect x="146" y="112" width="176" height="16" rx="8" fill="#1e66b2" />
  <rect x="146" y="148" width="176" height="12" rx="6" fill="#dbe7f4" />
  <rect x="146" y="174" width="176" height="12" rx="6" fill="#dbe7f4" />
  <rect x="146" y="200" width="142" height="12" rx="6" fill="#dbe7f4" />
  <rect x="146" y="244" width="96" height="96" rx="20" fill="#2fc4d4" opacity=".82" />
  <path d="M178 286h32M194 270v32M222 142l96 58" stroke="#f57a26" stroke-width="8" stroke-linecap="round" />
  <rect x="442" y="114" width="230" height="248" rx="28" fill="#f7fbff" stroke="rgba(36,83,143,.12)" />
  <path d="M482 170h144M482 198h120M482 226h160M482 254h98" stroke="#1e66b2" stroke-width="8" stroke-linecap="round" />
  <circle cx="560" cy="304" r="36" fill="#f57a26" />
  <path d="M546 304l10 10 18-22" fill="none" stroke="#ffffff" stroke-width="8" stroke-linecap="round" stroke-linejoin="round" />
</svg>
