<svg xmlns="http://www.w3.org/2000/svg" viewBox="0 0 800 450" role="img" aria-label="SRE report illustration">
  <defs>
    <linearGradient id="bg" x1="0" y1="0" x2="1" y2="1">
      <stop offset="0" stop-color="#ffffff" />
      <stop offset="1" stop-color="#edf3fa" />
    </linearGradient>
    <linearGradient id="accent" x1="0" y1="0" x2="1" y2="1">
      <stop offset="0" stop-color="#8a7dff" />
      <stop offset="1" stop-color="#63d8ff" />
    </linearGradient>
  </defs>
  <rect width="800" height="450" rx="36" fill="url(#bg)" />
  <rect x="188" y="64" width="280" height="322" rx="28" fill="#ffffff" stroke="rgba(36,83,143,.12)" />
  <rect x="220" y="96" width="160" height="18" rx="9" fill="#1e66b2" />
  <rect x="220" y="136" width="220" height="16" rx="8" fill="#edf3fa" />
  <rect x="220" y="172" width="220" height="16" rx="8" fill="#edf3fa" />
  <rect x="220" y="208" width="220" height="16" rx="8" fill="#edf3fa" />
  <rect x="220" y="246" width="98" height="16" rx="8" fill="#2fc4d4" />
  <rect x="220" y="292" width="180" height="64" rx="18" fill="#edf3fa" />
  <path d="M246 332l36-26 34 12 36-38 38 20" fill="none" stroke="url(#accent)" stroke-width="8" stroke-linecap="round" stroke-linejoin="round" />
  <circle cx="555" cy="170" r="98" fill="#1e66b2" opacity=".1" />
  <circle cx="560" cy="170" r="56" fill="#2fc4d4" opacity=".16" />
  <path d="M555 134l16 32 36 5-26 25 6 36-32-17-32 17 6-36-26-25 36-5z" fill="#f57a26" opacity=".92" />
  <path d="M520 292h92" stroke="rgba(36,83,143,.12)" stroke-width="2" />
  <circle cx="542" cy="314" r="12" fill="#1e66b2" />
  <circle cx="582" cy="314" r="12" fill="#2fc4d4" />
  <circle cx="622" cy="314" r="12" fill="#f57a26" />
</svg>
