<svg xmlns="http://www.w3.org/2000/svg" viewBox="0 0 800 450" role="img" aria-label="Grafana 13 illustration">
  <defs>
    <linearGradient id="bg" x1="0" y1="0" x2="1" y2="1">
      <stop offset="0" stop-color="#ffffff" />
      <stop offset="1" stop-color="#eef4fb" />
    </linearGradient>
    <linearGradient id="line" x1="0" y1="0" x2="1" y2="1">
      <stop offset="0" stop-color="#ffb74a" />
      <stop offset="1" stop-color="#63d8ff" />
    </linearGradient>
  </defs>
  <rect width="800" height="450" rx="36" fill="url(#bg)" />
  <rect x="90" y="82" width="620" height="286" rx="28" fill="#ffffff" stroke="rgba(36,83,143,.12)" />
  <rect x="118" y="112" width="564" height="30" rx="15" fill="#edf3fa" />
  <rect x="138" y="120" width="110" height="14" rx="7" fill="#1e66b2" />
  <rect x="138" y="172" width="144" height="128" rx="20" fill="#f7fbff" stroke="rgba(36,83,143,.08)" />
  <rect x="300" y="172" width="144" height="128" rx="20" fill="#f7fbff" stroke="rgba(36,83,143,.08)" />
  <rect x="462" y="172" width="172" height="128" rx="20" fill="#f7fbff" stroke="rgba(36,83,143,.08)" />
  <rect x="164" y="256" width="18" height="28" rx="9" fill="#1e66b2" />
  <rect x="194" y="228" width="18" height="56" rx="9" fill="#2fc4d4" />
  <rect x="224" y="212" width="18" height="72" rx="9" fill="#f57a26" />
  <path d="M318 264h94M318 240h58M318 216h110" stroke="#1e66b2" stroke-linecap="round" stroke-width="8" opacity=".8" />
  <path d="M480 258l28-22 30 14 28-34 30 10 34-34" fill="none" stroke="url(#line)" stroke-width="8" stroke-linecap="round" stroke-linejoin="round" />
  <circle cx="648" cy="172" r="52" fill="#2fc4d4" opacity=".16" />
  <circle cx="648" cy="172" r="24" fill="#f57a26" opacity=".9" />
  <path d="M648 145v54M621 172h54" stroke="#ffffff" stroke-width="8" stroke-linecap="round" />
  <path d="M120 346h560" stroke="rgba(36,83,143,.12)" stroke-width="2" />
</svg>
